<svg id="undraw_male_avatar_323b" xmlns="http://www.w3.org/2000/svg" width="31.999" height="32" viewBox="0 0 31.999 32">
  <path id="Path_72" data-name="Path 72" d="M294,128a15.946,15.946,0,0,1-1.288,6.3l-.053.122a16.026,16.026,0,0,1-17.434,9.337l-.288-.053a15.858,15.858,0,0,1-2.894-.853q-.228-.092-.453-.19c-.1-.045-.2-.09-.306-.138A16,16,0,1,1,294,128Z" transform="translate(-262 -112)" fill="#5fb709"/>
  <path id="Path_73" data-name="Path 73" d="M404.681,349.868l-.288-.053a65.787,65.787,0,0,0-1.008-9.433,35,35,0,0,0-1.725-6.275,19.514,19.514,0,0,0-.9-1.98,10.272,10.272,0,0,0-2.867-3.545l.168-.23a9.9,9.9,0,0,1,2.567,2.939q.342.567.656,1.209.337.687.643,1.459.2.491.377,1.017a36.9,36.9,0,0,1,1.347,5.206q.123.646.234,1.324A67.138,67.138,0,0,1,404.681,349.868Z" transform="translate(-391.458 -318.109)" opacity="0.2"/>
  <path id="Path_74" data-name="Path 74" d="M404.543,602.514c-.1-.045-.2-.091-.306-.138a23.227,23.227,0,0,0-.613-3.673,12.06,12.06,0,0,0-.559-1.666,5,5,0,0,0-1.5-2.107l.168-.229a5.229,5.229,0,0,1,1.573,2.156,14.788,14.788,0,0,1,.942,3.322C404.392,601.015,404.484,601.823,404.543,602.514Z" transform="translate(-394.954 -571.851)" opacity="0.2"/>
  <circle id="Ellipse_4" data-name="Ellipse 4" cx="1.424" cy="1.424" r="1.424" transform="translate(3.416 7.616)" opacity="0.2"/>
  <circle id="Ellipse_5" data-name="Ellipse 5" cx="1.424" cy="1.424" r="1.424" transform="translate(3.875 19.876)" opacity="0.2"/>
  <path id="Path_75" data-name="Path 75" d="M482.134,294.679a6.326,6.326,0,0,0,.365,3.247,5.765,5.765,0,0,0,1.094-6.171A6.326,6.326,0,0,0,482.134,294.679Z" transform="translate(-471.639 -283.247)" opacity="0.2"/>
  <path id="Path_76" data-name="Path 76" d="M330.844,397.517a6.357,6.357,0,0,0,3.258.213,5.8,5.8,0,0,0-5.886-2.152A6.357,6.357,0,0,0,330.844,397.517Z" transform="translate(-325.083 -382.04)" opacity="0.2"/>
  <path id="Path_77" data-name="Path 77" d="M340.868,639.136a4.436,4.436,0,0,0,2.286.145,4.041,4.041,0,0,0-4.125-1.508A4.433,4.433,0,0,0,340.868,639.136Z" transform="translate(-335.382 -612.801)" opacity="0.2"/>
  <circle id="Ellipse_6" data-name="Ellipse 6" cx="6.237" cy="6.237" r="6.237" transform="translate(9.729 7.068)" fill="#d0cde1"/>
  <path id="Path_78" data-name="Path 78" d="M547.833,454.736s.78,3.7.78,4.093,3.7,2.144,3.7,2.144l3.314-.585,1.17-3.509s-1.949-2.924-1.949-4.093Z" transform="translate(-534.303 -436.656)" fill="#d0cde1"/>
  <path id="Path_79" data-name="Path 79" d="M412.022,520.4l-.053.122a16.026,16.026,0,0,1-17.434,9.337l-.288-.053a15.856,15.856,0,0,1-2.894-.853q-.228-.091-.452-.19c-.1-.045-.2-.091-.306-.138a15.957,15.957,0,0,1-2.615-1.528l-.739-2.145.416-.317.855-.653.912-.7.237-.181,3.579-2.732.264-.2,1.86-1.42h0s2.012,3.278,4.936,2.3a4.032,4.032,0,0,0,2.86-3.769Z" transform="translate(-381.312 -498.096)" fill="#2f2e41"/>
  <path id="Path_80" data-name="Path 80" d="M455.512,217.5s1.98-4.291,5.776-3.3,5.941,2.475,6.106,3.961a21.2,21.2,0,0,1-.082,3.713s-.413-3.053-3.053-2.393a23.552,23.552,0,0,1-6.766.165l-.66,5.941s-.743-1.073-1.568-.413S452.871,218.824,455.512,217.5Z" transform="translate(-444.954 -209.224)" fill="#2f2e41"/>
  <path id="Path_81" data-name="Path 81" d="M375.424,683.27q-.228-.092-.453-.19c-.1-.045-.2-.091-.306-.138a16.041,16.041,0,0,1-4.146-2.778,5.6,5.6,0,0,1,.791-.894h2.924l.438,1.474Z" transform="translate(-365.383 -652.418)" fill="#2f2e41"/>
  <path id="Path_82" data-name="Path 82" d="M853.079,576.32l2.508.443a15.991,15.991,0,0,1-2.687,4.193Z" transform="translate(-824.93 -554.341)" fill="#2f2e41"/>
</svg>
